<?xml version="1.0" standalone="no"?>
<!DOCTYPE svg PUBLIC "-//W3C//DTD SVG 20010904//EN"
 "http://www.w3.org/TR/2001/REC-SVG-20010904/DTD/svg10.dtd">
<svg version="1.0" xmlns="http://www.w3.org/2000/svg" width="1000.000000pt" height="1000.000000pt" viewBox=" 100.000000 100.000000" preserveAspectRatio="xMidYMid meet">
  <metadata>
    Created by potrace 1.16, written by Peter Selinger 2001-2019
  </metadata>
  <g transform="translate(-560.00000, 2120.000000) scale(0.25,-0.2500000)" fill="#000000" stroke="none">
    <path d="M5087 8200 c-670 -58 -1257 -489 -1506 -1107 -108 -265 -152 -543
-130 -811 19 -242 71 -436 174 -647 104 -213 232 -388 396 -539 64 -60 215
-176 228 -176 3 0 19 61 35 136 l28 136 -59 51 c-367 319 -559 756 -539 1227
16 395 168 743 445 1020 221 220 472 355 785 422 138 30 415 32 561 4 269 -50
549 -183 725 -345 l55 -50 -45 -1 c-62 0 -197 -34 -282 -70 -162 -69 -335
-195 -484 -353 -152 -161 -242 -299 -414 -632 -57 -110 -125 -234 -152 -276
-51 -80 -142 -175 -195 -203 -51 -26 -148 -44 -274 -52 l-117 -7 -16 -81 c-9
-44 -16 -87 -16 -93 0 -10 57 -13 250 -13 169 0 250 -3 250 -11 0 -5 -16 -81
-34 -167 -89 -405 -141 -646 -186 -868 -72 -355 -124 -535 -200 -701 -138
-298 -338 -456 -594 -469 -104 -6 -139 6 -144 47 -2 18 8 38 38 70 49 52 60
76 60 131 0 148 -219 208 -354 97 -48 -41 -86 -119 -86 -180 0 -60 41 -140 93
-183 94 -76 201 -108 357 -108 122 0 199 12 330 54 314 100 532 300 703 643
112 226 174 423 348 1118 l132 527 215 2 216 3 23 80 c12 44 23 86 23 93 0 9
-49 12 -210 12 -168 0 -210 3 -210 13 0 31 193 622 252 772 81 205 187 375
313 500 98 96 205 162 335 206 82 28 113 33 227 37 83 3 156 0 194 -7 34 -7
63 -10 66 -7 10 9 -144 191 -227 269 -370 349 -885 530 -1383 487z"/>
  </g>
</svg>
